<?xml version="1.0" encoding="UTF-8"?>
<svg id="Layer_1_copy" data-name="Layer 1 copy" xmlns="http://www.w3.org/2000/svg" viewBox="0 0 444.78 306.75">
  <path d="m248.27,111.66s-.01-.51-.01-.51c5.8-5.37,11.91-10.21,17.75-15.76-10.23,5.79-19.89,13.09-29.55,19.44l-2.16,46.07c4.56-3.86,9.63-8.14,14.81-12.49-.33-4.72-.74-37.1-.84-36.74Z" fill="#3ec2d4"/>
  <path d="m127.1,41.75l33.27,12.85c-8.78-4.53-31.72-16.38-31.72-16.38-1.08.24-3.14.3-3.78,1.32.08.34.4.74.74,1.06.42.41.97.82,1.49,1.15Z" fill="#f6f7d8"/>
  <path d="m195.26,94.3c8.58,2.07,17.8,2.09,26.4.08,12.02-2.69,24.57-11.36,18.7-23.64-20.58-7.05-43.25-6.91-63.72.26-.38.77-.68,1.57-.9,2.38-3.05,11.64,9.8,18.72,19.51,20.93Z" fill="#f8991d"/>
  <path d="m207.08,3.2s.48.7.62.92c0-.33-.28-.8-.62-.92Z" fill="#49855e"/>
  <path d="m287.86,36.6s-21.07,12.01-31.52,17.97c11.01-4.68,33.16-14.09,33.16-14.09,3.2-3.45,2.61-4.11-1.63-3.88Z" fill="#f6f7d8"/>
  <path d="m209.33,42.77l1.58-38.56c-.27-.46-.51-1.03-.83-1.44-.24-.28-.5-.61-.81-.58-.58.04-1.45,1.52-1.55,1.94.02.03.03.04.03.04,0,0,1.01,24.65,1.59,38.59Z" fill="#f6f7d8"/>
  <path d="m87.77,98.23c2.52,1.63,5.06,3.27,5.06,3.27l5.41,3.5,2.73,1.77c1.17.79,1.82,2.21,1.77,3.61.72,23.49,1.79,53.03,2.42,76.4-.07,1.03-.49,2.01-.97,2.9l-.48.38s-54.07,42.13-56.6,44.1c30.2-6.74,60.74-12.69,91.18-18.26,18.42-3.33,36.86-6.46,55.42-8.96-3.68-4.5-7.52-8.88-11.5-13.1-4.14-4.37-8.44-8.61-13.06-12.37-3.36-2.63-6.91-5.38-10.97-6.46-1.24-.29-2.33-.26-3.05.16-2.77,1.4-5.62,2.66-8.62,3.7-5.6,2.02-15.41,4.02-17.6-3.67-3.9-20.31-7.82-42.31-11.16-62.59-8.35-3.79-20.26-9.57-29.97-14.37Z" fill="#3ec2d4"/>
  <path d="m316.85,186.12l-.1-1.21s-6.32-75.5-6.32-75.5c0,0,0-1.35,0-1.35,0,0,.89-.51.89-.51,0,0,13.44-7.73,19.62-11.29-10.91,3.44-21.45,6.73-31.89,9.68-.03.61-.06,1.31-.07,1.73-1.21,26.29-3.2,52.6-5.54,78.81-3.32-.68,7.46,1.54-7.69-.37,0-.35.01-.41.02-.6-.57-.16-1.12-.36.02-.33.02-.22.04-.6.04-.6l1.01-11.74c.16-2.93.21-6.91-1.22-9.17-3.92-5.18-21.56,8.52-25.53,11.68-12.02,9.53-23.29,20.26-34.58,30.99,32.79,4.34,66.86,10.21,99.45,16.15,19.37,3.62,38.7,7.34,57.94,11.64-9.8-7.11-65.07-47.21-65.07-47.21,0,0-1-.79-1-.79Z" fill="#3ec2d4"/>
  <path d="m254.16,147.07c-12.95,10.88-30.36,26.59-43.9,36.35-3.92-2.93-7.75-5.94-11.56-8.93-24.91-19.7-48.12-40.28-72.34-60.92.01.07.02.14.03.22,27.16,27.56,53.43,56.74,79.99,84.79,1.18,1.2,2.42,2.5,3.68,3.7,26.68-28.21,52.06-57.62,79.06-85.57-.95.83-1.9,1.67-2.84,2.5-10.65,9.35-21.36,18.64-32.11,27.87Z" fill="#ee255f"/>
  <path d="m285.78,185.5s0,0,.01,0c0,0,0,0,0,0l.02-.16s.01-.14.02-.17c0,0-.01,0-.02,0,0,.09-.01.16-.01.16,0,.07,0,.12-.01.17Z" fill="#49855e"/>
  <path d="m170.61,111.26v.4s-.55,36.63-.55,36.63c4.99,4.06,9.95,8.15,14.88,12.26l-1.87-46.32c-9.9-6.18-19.44-13.03-29.95-18.84,5.7,5.41,11.57,10.29,17.21,15.6,0,0,.29.27.29.27Z" fill="#3ec2d4"/>
  <path d="m98.87,186.16s0-.05,0-.08c0,0,0,.01-.01.02,0,0,0,.04,0,.04v.02Z" fill="#49855e"/>
  <path d="m322.32,183.17c-.94-8.86-6.86-64.52-7.77-73.04,4.16-3.14,19.86-14.99,19.86-14.99l1.95-1.14c-13.62,2.72-27.42,5.54-41.62,8.89-.43.57-.62,1.46-.67,2.13l-.09.74-.19,1.47c-.19,1.53-.37,3.06-.56,4.6-6.28,5.11-12.53,10.24-18.76,15.41-7.11,5.89-15.96,13.29-24.6,20.54.15-6.69.67-31.79.76-35.61,5.45-5.64,10.6-11.75,15.99-17.23-11.08,5.98-22.64,10.34-34.11,16.06l-1.46.71s.08,1.64.08,1.64l2.26,48.32c-.8.68-1.59,1.34-2.35,1.99-7.14,6.02-14.2,12.13-20.83,18.75-3.47-3.17-7.03-6.28-10.6-9.4-4.54-3.94-9.16-7.84-13.8-11.72l1.96-48.4.06-1.46s-1.3-.63-1.3-.63c-11.31-5.56-23.18-10.15-34.03-15.87,5.43,5.51,10.72,11.53,16.23,17.12.06,3.42.42,28.64.52,35.58-14.29-11.61-28.76-23.03-42.95-34.41-.33-2.28-.66-4.56-1-6.81-15.48-4.78-31.02-8.84-46.42-12.73,0,0,2.68,1.45,2.68,1.45,3.52,2.57,12.2,8.83,15.64,11.36,0,0,2.58,1.88,2.58,1.88.62.46.85,1.26.77,2-.29,12.83-.86,38.7-1.15,51.53-.15,6.58-.39,17.3-.53,23.9-6.36,5.79-53.59,48.79-53.59,48.79,0,0-.95.86-.95.86,31.59-4.65,63.21-10.23,94.59-16.15,18.61-3.55,37.16-7.29,55.6-11.7,0,0,.57-.14.57-.14,0,0-.34-.47-.34-.47-7.72-10.48-23.42-31.6-35.56-35.72-1.82-.56-3.96-.71-5.83.14-2.71,1.16-5.48,2.18-8.26,2.95-2.27.62-10.18,2.52-10.68-.59-2.33-18.56-4.9-38.09-7.6-56.93,1.71,2.17,3.41,4.31,4.64,5.87,16.97,21.21,34.87,42.48,52.87,62.8,5.47,6.15,10.98,12.27,16.68,18.24,2.2,2.21,4.11,4.42,6.66,6.37,1.85,1.34,3.98,1.04,5.61-.47,3.8-3.5,7.1-7.37,10.58-11.14,10.94-12.27,21.63-24.73,32.11-37.39,12.56-15.08,24.92-30.33,36.85-45.94-1.64,13.73-3.07,27.5-4.38,41.28-.08-.05-.15-.1-.24-.14-7.64-3.61-16.61,2.59-22.54,6.78-15.96,12.17-29.26,27.33-41.28,43.26,0,0-.45.48-.45.48,13.44,3.04,26.94,5.77,40.46,8.39,39.53,7.57,80.29,14.77,120.17,20.05,0,0,1.52.32,1.52.32l-1.21-1s-54.58-44.87-62.55-51.42Zm-85.87-68.35c9.67-6.34,19.33-13.65,29.55-19.44-5.84,5.55-11.95,10.39-17.75,15.76,0,0,.01.51.01.51.1-.36.51,32.03.84,36.74-5.18,4.35-10.25,8.63-14.81,12.49l2.16-46.07Zm-83.34-19.44c10.51,5.81,20.05,12.67,29.95,18.84l1.87,46.32c-4.93-4.11-9.88-8.2-14.88-12.26l.54-36.63v-.4s-.28-.27-.28-.27c-5.64-5.31-11.5-10.19-17.21-15.6Zm-54.24,90.69s0,.11,0,.08v-.02s0-.04,0-.04c0,0,0-.01.01-.02Zm30.03-10.89c2.19,7.69,12,5.69,17.6,3.67,3-1.03,5.85-2.3,8.62-3.7.73-.42,1.82-.45,3.05-.16,4.06,1.08,7.61,3.82,10.97,6.46,4.62,3.75,8.91,7.99,13.06,12.37,3.98,4.22,7.83,8.6,11.5,13.1-18.56,2.49-37,5.63-55.42,8.96-30.43,5.57-60.98,11.52-91.18,18.26,2.53-1.97,56.6-44.1,56.6-44.1l.48-.38c.48-.9.9-1.88.97-2.9-.64-23.37-1.7-52.91-2.42-76.4.04-1.41-.6-2.82-1.77-3.61l-2.73-1.77-5.41-3.5s-2.54-1.64-5.06-3.27c9.7,4.81,21.61,10.58,29.97,14.37,3.35,20.29,7.26,42.29,11.16,62.59Zm81.15,27.08c-1.25-1.2-2.5-2.5-3.68-3.7-26.56-28.04-52.84-57.23-79.99-84.79-.01-.07-.02-.14-.03-.22,24.22,20.64,47.43,41.22,72.34,60.92,3.81,2.99,7.64,6,11.56,8.93,13.55-9.76,30.95-25.46,43.9-36.35,10.75-9.23,21.46-18.52,32.11-27.87.95-.83,1.9-1.67,2.84-2.5-27,27.95-52.38,57.36-79.06,85.57Zm114.92,20.21c-32.58-5.93-66.66-11.81-99.45-16.15,11.29-10.73,22.56-21.46,34.58-30.99,3.97-3.16,21.61-16.86,25.53-11.68,1.44,2.26,1.38,6.24,1.22,9.17l-1.01,11.74s-.03.38-.04.6c0,0,.01,0,.02,0,0,.04-.02.17-.02.17l-.02.16s0,0,0,0c0,0,0,0-.01,0-.01.18-.02.25-.02.6,15.15,1.91,4.37-.31,7.69.37,2.34-26.21,4.33-52.52,5.54-78.81.02-.41.05-1.11.07-1.73,10.43-2.95,20.98-6.23,31.89-9.68-6.18,3.55-19.62,11.29-19.62,11.29,0,0-.89.51-.89.51,0,0,0,1.35,0,1.35,0,0,6.32,75.5,6.32,75.5l.1,1.21s1,.79,1,.79c0,0,55.26,40.1,65.07,47.21-19.24-4.3-38.57-8.02-57.94-11.64Z" fill="#252a34"/>
  <path d="m285.78,185.5s0-.1.01-.17c0,0,0-.07.01-.16-1.15-.03-.6.17-.02.33Z"/>
  <path d="m208.95,52.15s.77,0,.77,0l3.27-48.27c-.62-1.75-1.71-4.02-3.94-3.88-1.93.31-3.06,2.04-3.6,3.75-.05.2-.06.5,0,.76.03.39,3.5,47.63,3.5,47.63Zm.32-49.95c.31-.03.57.29.81.58.32.41.56.98.83,1.44l-1.58,38.56c-.57-13.94-1.59-38.59-1.59-38.59,0,0-.01-.02-.03-.04.1-.42.98-1.91,1.55-1.94Zm-1.57,1.92c-.14-.21-.62-.92-.62-.92.34.12.63.59.62.92Z" fill="#020202"/>
  <path d="m125.8,44.37l.18.06s40.74,13.44,40.74,13.44l.31-.7-38.2-19.7c-6.32-.88-7.82,2.47-3.23,6.75,0,0,.2.14.2.14Zm2.85-6.15s22.94,11.85,31.72,16.38l-33.27-12.85c-.52-.33-1.07-.74-1.49-1.15-.33-.32-.66-.72-.74-1.06.64-1.02,2.7-1.08,3.78-1.32Z" fill="#020202"/>
  <path d="m290.81,42.3c3.72-4.35,3.04-8.18-3.22-6.41-.11,0-37.26,21.24-37.37,21.28l.33.69,40.25-15.57Zm-2.94-5.7c4.24-.23,4.83.43,1.63,3.88,0,0-22.14,9.41-33.16,14.09,10.45-5.96,31.52-17.97,31.52-17.97Z" fill="#020202"/>
  <path d="m236.47,103.17c-25.5,10-58.7,5.86-76.71-16.22l-.64.42c2.38,4.21,5.63,7.94,9.33,11.12,18.92,15.79,47.32,18.13,69.44,7.93,8.78-4.08,16.87-10.56,21.65-19.05,0,0-.64-.42-.64-.42-5.91,7.43-13.86,12.74-22.43,16.22Z"/>
  <path d="m144.96,86.69c-2.63-.3-5.38-1.22-7.27-3.14,0,0-.61.47-.61.47,1.35,2.04,3.53,3.4,5.8,4.24.87.33,1.85.6,2.82.78,0,0,.47-.4.47-.4,8.38-7.3,17.89-12.88,27.98-16.74-.73,1.37-1.26,2.85-1.48,4.38-1.25,6.55,2.81,12.9,7.86,16.71,11.99,8.88,28.37,10.26,42.47,6.53,7.07-2.01,14.34-5.66,18.69-11.89,3.6-4.92,3.74-11.11,1.04-16.08,7.4,2.76,14.51,6.46,21.11,11.12,2.54,1.76,5.01,3.66,7.42,5.64,1.31-.7,2.57-1.45,3.74-2.34,1.03-.81,2.08-1.62,2.69-2.85,0,0-.67-.38-.67-.38-1.38,1.57-3.46,2.43-5.39,3.22-7.84-8.48-17.63-15.31-28.42-19.9-21.99-9.42-48-9.28-69.9.35-10.77,4.74-20.56,11.64-28.34,20.25Zm30.79-13.32c.21-.81.52-1.61.9-2.38,20.47-7.17,43.13-7.31,63.72-.26,5.87,12.28-6.68,20.96-18.7,23.64-8.6,2.02-17.82,1.99-26.4-.08-9.71-2.21-22.56-9.29-19.51-20.93Z"/>
</svg>